<svg xmlns="http://www.w3.org/2000/svg" viewBox="0 0 1928.55 623"><defs><style>.cls-1{fill:#63b1e4;}.cls-2{fill:#013478;}</style></defs><title>Asset 2</title><g id="Layer_2" data-name="Layer 2"><g id="Layer_1-2" data-name="Layer 1"><path class="cls-1" d="M453,80.5A293,293,0,0,0,294.4,34.2C131.81,34.2,0,166,0,328.6S131.81,623,294.4,623,588.8,491.19,588.8,328.6a293.19,293.19,0,0,0-31.95-133.53l-47.26,25A240,240,0,0,1,535.36,328.6c0,133.08-107.88,241-241,241s-241-107.88-241-241,107.88-241,241-241a239.82,239.82,0,0,1,122.51,33.43Z"/><path class="cls-2" d="M589,0c-2.83,45.15,11.37,85.12,37,121.58a103.07,103.07,0,0,0,7.64,9.87c2.63,2.93,2.79,4.17-1.39,5.85-28.8,11.63-57.32,24-85.11,37.86-47.28,23.64-91.3,52-129.7,88.7-39.85,38.05-71.7,82.14-99,129.75q-17.1,29.85-31.8,61c-.55,1.18-1.28,2.28-2.19,3.89A337.69,337.69,0,0,0,260,415.8c-22-32-49-58.21-85.17-74-18.47-8-37.71-12.48-59.15-12A238.53,238.53,0,0,0,147,306.94c21-18.52,38.57-39.54,47.68-66.55,1.37-4,2.83-1.91,4.43-.63,37.38,29.87,65.13,66.71,81.6,112.75,2.93-6.13,5.64-11.86,8.4-17.57,28.54-58.9,64.8-112.73,107.12-162.51C451,108,512.91,51.46,582.78,3.74,584.54,2.53,586.26,1.25,588,0Z"/><path class="cls-2" d="M1928.55,269.28c-2.69,3.26-3.41,7.41-4.9,11.19-18.79,47.57-35.93,95.79-56.12,142.8-9.4,21.88-19.74,43.33-35.75,61.37-14.71,16.59-32.54,28.25-54.42,33.25-4.11,1-6.58.77-7.7-4.31-2-9.07-4.66-18-7.45-26.89-1.17-3.73-.87-5.2,3.3-6.52,21-6.65,37.13-19.54,47.87-39,2.55-4.61,2.61-8.83.55-13.72q-32.87-78.06-65.51-156.22c-1.38-3.27-1.53-4.61,2.75-4.55,14.16.21,28.32.16,42.48,0,2.78,0,4.07.74,5,3.44,13.56,40.46,29.9,80,41.13,121.24a13.63,13.63,0,0,0,1.24,2.22c4.3-14.72,8.3-28.86,12.55-42.93,8-26.56,16.24-53.06,24.27-79.62,1-3.14,2.25-4.46,5.84-4.39,13.15.28,26.32.13,39.48.09,1.8,0,3.67.41,5.41-.46Z"/><path class="cls-1" d="M819.91,311.1c9.81,2.79,18.72,6.65,26.78,12.48C879.07,347,877,394.3,848.76,418.23c-16.33,13.82-35.77,19.4-56.32,22-30.2,3.85-60.43,2.55-90.66,0-3.9-.33-5.63-1.53-5.62-6q.24-112.93,0-225.87c0-4.13,1.46-5.51,5.21-6a466,466,0,0,1,72.18-3.83c14.1.4,28.26,1.35,41.84,5.84,13,4.28,25.18,10.28,34,20.94,21.49,26,13.9,62-16.3,79.16C829,306.81,824.59,308.76,819.91,311.1ZM741.83,369c0,11.33.26,22.67-.13,34-.16,4.48,1.54,6,5.51,6.06,9.49,0,19,.5,28.47-.11a64.32,64.32,0,0,0,27.21-7.47,36.31,36.31,0,0,0,13.9-50.44c-5.92-9.88-15.54-14.69-26.23-17.7-14.51-4.1-29.39-2.8-44.17-3.16-3.93-.1-4.7,1.29-4.64,4.87C742,346.39,741.83,357.72,741.83,369Zm0-104.15c0,9.66.09,19.32-.05,29,0,3.17.93,4.46,4.28,4.37,7.48-.21,15,.19,22.47-.14,9.84-.44,19.53-2,28.41-6.64,13.4-7,19.25-17.48,17.51-32.79-1.52-13.36-10.34-20.7-22.58-24.41-15.14-4.58-30.58-3.35-46-2.11-3.36.27-4.1,1.79-4.06,4.79C741.91,246.25,741.83,255.57,741.83,264.89Z"/><path class="cls-2" d="M1393,321.26c0-37.65,0-75.3-.08-112.95,0-3.54.67-5.32,4.56-5.77,33.3-3.89,66.63-6.77,100-1.21,19.1,3.18,36.28,10.43,49.51,25.5,24,27.41,23.42,87.91-24,111.42-21.79,10.8-45,13.5-68.89,13a72.89,72.89,0,0,1-10.44-.85c-3.78-.61-5.09.25-5.06,4.45.21,26.82,0,53.65.22,80.47,0,4.28-1.18,5.17-5.23,5.08-12-.29-24-.27-36,0-3.76.09-4.7-.91-4.68-4.66C1393.08,397.57,1393,359.42,1393,321.26Zm45.69-46.93v28.46c0,12.88,0,13.13,13,13.83,15,.8,30,.19,43.67-7.28,15.06-8.21,21.37-21.52,20.89-38-.49-16.93-8.82-29-24.94-34.93-16.28-6-33-4.65-49.79-2.7-2.72.32-2.85,2-2.84,4.2C1438.75,250,1438.72,262.18,1438.72,274.33Z"/><path class="cls-2" d="M1731,440.28c-13.07,0-26.21,0-39.34.05-2.25,0-2.28-1.35-2.52-2.84-.87-5.35-1.77-10.7-2.81-17-8.36,9.33-17.69,15.83-28.77,19.41-18.54,6-37.12,6.6-54.9-2.3-34.25-17.13-38.23-65-7.62-89,14.74-11.55,32.1-16.38,50.16-19.32a225.42,225.42,0,0,1,33.84-2.49c2.89,0,3.57-.89,3.49-3.7-.45-16.4-11.65-27.45-29.79-28.78a96.57,96.57,0,0,0-52.6,10.68c-3.24,1.69-4,1-4.91-2.17-2-7-4.15-14-6.68-20.88-1.24-3.36-.07-4.61,2.72-6,15.31-7.46,31.59-11.26,48.45-12.65,13.82-1.14,27.59-.93,41.15,2.66,26.81,7.09,43.47,26.39,46.7,54.05a164.12,164.12,0,0,1,1,17.44c.3,29-.94,58,1,86.94C1729.88,429.59,1730.5,434.71,1731,440.28Zm-47.77-69.63h.29c0-3.66-.26-7.35.07-11s-1.14-4.55-4.51-4.27c-6,.5-12,.39-17.92,1.08-10.28,1.21-20.36,3.34-29.13,9.32s-12.47,14.37-11.55,24.89c.75,8.59,4.52,15.22,12.48,19,19.77,9.44,46.5-4.1,50.17-25.61C1683.9,379.74,1683.26,375.14,1683.26,370.65Z"/><path class="cls-1" d="M1117.32,413.45a69.49,69.49,0,0,1-21,20.63c-22.12,13.93-55.66,13.48-76.15-1.39-14.39-10.45-20.66-25.64-23.6-42.53a159.88,159.88,0,0,1-1.9-26.85c-.14-30.33,0-60.66-.14-91,0-4,.89-5.52,5.2-5.41q17.75.43,35.49,0c4.31-.1,5.7,1,5.66,5.51-.21,27.83-.14,55.66-.08,83.49,0,9.49.56,18.91,3,28.17,7.81,29.26,39.3,28.93,54.69,15.67,9.22-7.94,14.09-17.75,14-30.15-.17-32.33.05-64.66-.18-97,0-4.75,1.44-5.81,5.88-5.7q17.73.42,35.49,0c4.11-.1,5,1.33,4.94,5.14q-.18,62.24,0,124.48c0,13.48.62,27,1.27,40.43.14,2.8-.46,3.39-3,3.37-11.33-.1-22.66-.12-34,0-2.62,0-3.38-.9-3.55-3.41C1118.9,429.63,1118.13,422.35,1117.32,413.45Z"/><path class="cls-1" d="M1295.63,366c-18.16,0-36.31.12-54.47-.09-4.15-.05-5,1.33-4.68,5.18,1.56,16.51,14.75,31.4,32.89,36.14,22.38,5.84,44.55,3.29,66.49-2.63,6.94-1.87,6.41-3,8.2,5,1.43,6.32,2.88,12.63,4.26,19,.55,2.51,1,4.74-2.53,5.87-31.16,9.94-62.72,14-94.72,5-34.14-9.66-54.9-35.4-58.65-71.05-2.68-25.43,2.08-49.13,16.78-70.24,15.38-22.07,37.16-33,63.78-34.93,14.81-1.07,29.28.26,42.93,6.42,22.57,10.18,34.75,28.68,40.45,52a112.16,112.16,0,0,1,2.17,40.13c-.3,2.57-1.17,3.94-4,4-9.66.06-19.31.28-29,.34C1315.62,366.06,1305.63,366,1295.63,366Zm-17-72.84c-22.39-1-38,16.1-42,38.22-.51,2.83.46,3.83,3.38,3.82q36-.12,71.9,0c2.64,0,3.92-.53,3.79-3.59C1314.73,310.82,1302.09,292.55,1278.62,293.17Z"/><path class="cls-1" d="M950.83,314.32c0,40.15-.07,80.31.09,120.46,0,4.26-.88,5.75-5.45,5.62-11.82-.34-23.66-.31-35.48,0-4.31.11-5.57-.91-5.56-5.44.19-46,.12-92,.12-137.95,0-34.48.09-69-.11-103.46,0-4.79.78-6.64,6.13-6.41,11.31.49,22.66.4,34,0,4.9-.16,6.45,1,6.41,6.2C950.72,233.69,950.83,274,950.83,314.32Z"/></g></g></svg>