<?xml version="1.0" encoding="UTF-8"?>
<svg width="41px" height="54px" viewBox="0 0 41 54" version="1.1" xmlns="http://www.w3.org/2000/svg" xmlns:xlink="http://www.w3.org/1999/xlink">
    <g id="Welcome" stroke="none" stroke-width="1" fill="none" fill-rule="evenodd">
        <g id="Desktop-1" transform="translate(-1767.000000, -17.000000)" fill="#FFFFFF" fill-rule="nonzero">
            <g id="Menu">
                <path d="M1806.56038,30.7779248 L1798.03443,30.7779248 L1798.03443,27.9814154 C1798.03443,21.9109435 1793.25991,17 1787.46226,17 C1781.66462,17 1776.89009,21.9109435 1776.89009,27.9814154 L1776.89009,30.7779248 L1768.36415,30.7779248 C1767.61387,30.7779248 1767,31.3917928 1767,32.1420758 L1767,66.2458502 C1767,68.4966993 1768.8416,70.3383031 1771.09245,70.3383031 L1803.83208,70.3383031 C1806.08293,70.3383031 1807.92453,68.4966993 1807.92453,66.2458502 L1807.92453,32.1420758 C1807.92453,31.3917928 1807.31066,30.7779248 1806.56038,30.7779248 Z M1780.30047,27.9814154 C1780.30047,23.8207549 1783.50623,20.4103774 1787.46226,20.4103774 C1791.4183,20.4103774 1794.62406,23.8207549 1794.62406,27.9814154 L1794.62406,30.7779248 L1780.30047,30.7779248 L1780.30047,27.9814154 Z M1787.93813,63.6349287 C1780.57934,63.6349287 1774.61387,57.6694519 1774.61387,50.3106633 C1774.61387,42.9518748 1780.57934,36.986398 1787.93813,36.986398 C1795.29692,36.986398 1801.2624,42.9518748 1801.2624,50.3106633 C1801.2624,57.6694519 1795.29692,63.6349287 1787.93813,63.6349287 Z" id="Shape"></path>
            </g>
        </g>
    </g>
</svg>