<svg xmlns="http://www.w3.org/2000/svg" x="0px" y="0px" viewBox="0 0 100 125"><path d="M90.909,70.455l-22.5-22.5l10.227-10.227l4.091-4.091l4.089-4.089c4.52-4.52,4.519-11.847-0.001-16.365  c-4.519-4.517-11.844-4.517-16.362,0.001l-4.089,4.089l-4.091,4.091L52.045,31.591l-22.5-22.5L25.454,5l-4.091,4.091L9.091,21.364  L5,25.454l4.091,4.091l5.113,5.113l2.046,2.046l6.136,6.136l2.046,2.045l6.136,6.136l1.023,1.023L21.364,62.273l-3.358,3.887  c-1.406,1.628-2.48,3.516-3.16,5.556l-3.061,9.182L8.125,91.875l10.977-3.659l9.182-3.06c2.041-0.68,3.929-1.754,5.557-3.161  l3.887-3.358l10.227-10.227l1.023,1.023l6.136,6.136l2.045,2.046l6.136,6.136l2.046,2.046l5.113,5.113L74.546,95l4.091-4.091  l12.273-12.273L95,74.546L90.909,70.455z M74.546,17.273c2.259-2.26,5.922-2.26,8.182,0c2.26,2.259,2.26,5.922,0,8.182l-4.091,4.091  l-8.182-8.182L74.546,17.273z M66.363,25.454l0.171,0.171l8.011,8.011L64.318,43.864l-8.182-8.182L66.363,25.454z M17.272,82.728  l4.091-12.273l8.182,8.182L17.272,82.728z M33.636,74.546l-8.182-8.182l10.227-10.227l3.068,3.068l2.045,2.045l3.068,3.068  L33.636,74.546z M74.546,86.818l-5.114-5.114l8.182-8.182l-2.046-2.046l-8.182,8.182l-6.136-6.136l4.091-4.091l-2.046-2.046  l-4.091,4.091l-6.136-6.136l4.091-4.091l-2.045-2.045l-4.091,4.091l-6.136-6.136l8.182-8.182l-2.045-2.045l-8.182,8.182  l-6.136-6.136l4.091-4.091l-2.045-2.045l-4.091,4.091l-6.136-6.136l4.091-4.091l-2.046-2.046l-4.091,4.091l-6.136-6.136l8.182-8.182  l-2.046-2.046l-8.182,8.182l-5.114-5.114l12.273-12.272l61.363,61.363L74.546,86.818z"/></svg>