<svg xmlns="http://www.w3.org/2000/svg" viewBox="0 0 202.36 202.36"><path d="M149.29,37.53,165,21.87A101.27,101.27,0,0,0,112.17,0V22.16A79.34,79.34,0,0,1,149.29,37.53Z"/><path d="M112.17,180.2v22.16A101.43,101.43,0,0,0,165,180.49l-15.66-15.66A79.54,79.54,0,0,1,112.17,180.2Z"/><path d="M53.07,164.83,37.41,180.49a101.36,101.36,0,0,0,52.78,21.87V180.2A79.46,79.46,0,0,1,53.07,164.83Z"/><path d="M22.16,90.19A79.25,79.25,0,0,1,37.53,53.07L21.87,37.41A101.2,101.2,0,0,0,0,90.19Z"/><path d="M22.16,112.17H0A101.27,101.27,0,0,0,21.87,165l15.66-15.66A79.34,79.34,0,0,1,22.16,112.17Z"/><path d="M90.19,22.16V0A101.2,101.2,0,0,0,37.41,21.87L53.07,37.53A79.25,79.25,0,0,1,90.19,22.16Z"/><path d="M164.83,149.29,180.49,165a101.43,101.43,0,0,0,21.87-52.78H180.2A79.54,79.54,0,0,1,164.83,149.29Z"/><path d="M180.2,90.19h22.16a101.36,101.36,0,0,0-21.87-52.78L164.83,53.07A79.46,79.46,0,0,1,180.2,90.19Z"/></svg>