<svg xmlns="http://www.w3.org/2000/svg" viewBox="0 0 150 150"><defs><style>.cls-1{fill:#fa6400;}.cls-2{fill:#fff;}</style></defs><title>Asset 4</title><g id="Layer_2" data-name="Layer 2"><g id="Layer_1-2" data-name="Layer 1"><path class="cls-1" d="M150,75A75,75,0,1,1,75,0,75,75,0,0,1,150,75Z"/><path class="cls-2" d="M20.35,75.47a.47.47,0,0,0-.45.44l-.82,6.22.82,6.11a.47.47,0,0,0,.45.44.47.47,0,0,0,.45-.44l1-6.11-1-6.23A.47.47,0,0,0,20.35,75.47Z"/><path class="cls-2" d="M24.49,71.62a.49.49,0,0,0-.47.45l-1.1,10.06L24,92A.47.47,0,0,0,25,92l1.26-9.84L25,72.07A.49.49,0,0,0,24.49,71.62Z"/><path class="cls-2" d="M42.31,62.79a.87.87,0,0,0-.86.84l-.89,18.51.89,12a.86.86,0,0,0,1.71,0h0l1-12-1-18.51A.87.87,0,0,0,42.31,62.79Z"/><path class="cls-2" d="M33.33,69.22a.68.68,0,0,0-.66.65l-1,12.26,1,11.87A.66.66,0,0,0,34,94l1.13-11.87L34,69.87A.68.68,0,0,0,33.33,69.22Z"/><path class="cls-2" d="M51.43,56.47a1,1,0,0,0-1,1l-.75,24.63.75,11.76a1,1,0,0,0,1,1,1,1,0,0,0,1-1l.84-11.76-.84-24.63A1,1,0,0,0,51.43,56.47Z"/><path class="cls-2" d="M70.12,52.28a1.38,1.38,0,0,0-1.3,1.42l-.48,28.44s.48,11.44.48,11.44a1.3,1.3,0,1,0,2.59,0L72,82.15l-.54-28.46A1.37,1.37,0,0,0,70.12,52.28Z"/><path class="cls-2" d="M60.7,56.11a1.2,1.2,0,0,0-1.16,1.22l-.61,24.82.61,11.57a1.16,1.16,0,1,0,2.32,0h0l.69-11.59-.69-24.81A1.2,1.2,0,0,0,60.7,56.11Z"/><path class="cls-2" d="M37.8,70a.77.77,0,0,0-.78.74l-1,11.37,1,12a.78.78,0,0,0,1.55,0l1.1-12-1.1-11.38A.77.77,0,0,0,37.8,70Z"/><path class="cls-2" d="M28.89,69.65a.57.57,0,0,0-.56.55l-1,11.93,1,11.5a.57.57,0,0,0,.56.55.58.58,0,0,0,.56-.55l1.19-11.5L29.45,70.2A.58.58,0,0,0,28.89,69.65Z"/><path class="cls-2" d="M65.39,56.92a1.27,1.27,0,0,0-1.22,1.32l-.55,23.91.55,11.5a1.23,1.23,0,1,0,2.45,0h0l.61-11.5-.61-23.92A1.28,1.28,0,0,0,65.39,56.92Z"/><path class="cls-2" d="M46.85,58.47a1,1,0,0,0-.94.93L45.1,82.14,45.91,94a.94.94,0,1,0,1.88,0l.92-11.88L47.79,59.4A1,1,0,0,0,46.85,58.47Z"/><path class="cls-2" d="M56.05,55.55A1.12,1.12,0,0,0,55,56.68l-.67,25.46L55,93.83a1.09,1.09,0,1,0,2.18,0h0l.76-11.69-.76-25.46A1.12,1.12,0,0,0,56.05,55.55Z"/><path class="cls-2" d="M117.31,67.46A13.89,13.89,0,0,0,112,68.53,24.31,24.31,0,0,0,87.77,46.38,24.68,24.68,0,0,0,79,48c-1,.41-1.32.82-1.33,1.62V93.37A1.68,1.68,0,0,0,79.12,95l38.19,0a13.78,13.78,0,0,0,0-27.56Z"/><path class="cls-2" d="M74.82,49.61a1.42,1.42,0,0,0-1.27,1.51l-.51,31,.51,11.27a1.29,1.29,0,1,0,2.54,0v0l.56-11.27-.56-31A1.42,1.42,0,0,0,74.82,49.61Z"/></g></g></svg>