<?xml version="1.0" encoding="utf-8"?>
<!-- Generator: Adobe Illustrator 22.1.0, SVG Export Plug-In . SVG Version: 6.00 Build 0)  -->
<svg version="1.1" id="Layer_1" xmlns="http://www.w3.org/2000/svg" xmlns:xlink="http://www.w3.org/1999/xlink" x="0px" y="0px"
	 viewBox="0 0 150 150" style="enable-background:new 0 0 150 150;" xml:space="preserve">
<style type="text/css">
	.st0{fill:#F03232;}
	.st1{fill:#FFFFFF;}
</style>
<title>Asset 3</title>
<g id="Layer_2_1_">
	<g id="Layer_1-2">
		<circle class="st0" cx="75" cy="75" r="75"/>
		<path class="st1" d="M70.1,58.3c-0.1,1.6,0.5,3.2,1.6,4.4c1.1,1.1,2.7,1.7,4.2,1.6c1.6,0.1,3.2-0.5,4.3-1.6
			c1.1-1.2,1.6-2.8,1.6-4.4V47.2c0-1.5-0.5-2.9-1.6-4c-1.1-1.1-2.6-1.6-4.1-1.6c-1.6-0.1-3.2,0.5-4.4,1.5c-1.1,1-1.7,2.5-1.6,4
			L70.1,58.3z M74.2,46.9c0-0.4,0.2-0.8,0.5-1.2c0.3-0.3,0.8-0.4,1.2-0.4c0.5,0,0.9,0.1,1.3,0.4c0.3,0.3,0.5,0.7,0.5,1.2v11.8
			c0,0.5-0.1,1-0.5,1.4c-0.3,0.3-0.8,0.5-1.3,0.5c-0.5,0-0.9-0.2-1.2-0.5c-0.3-0.4-0.5-0.9-0.4-1.4L74.2,46.9z M88,64.1
			c0.8,0,1.6-0.3,2.3-0.7c0.9-0.5,1.7-1.2,2.3-2v2.4h4V42.1h-4v16.5c-0.4,0.4-0.8,0.8-1.2,1.2c-0.3,0.3-0.7,0.4-1.1,0.5
			c-0.3,0-0.6-0.1-0.8-0.3c-0.2-0.3-0.3-0.7-0.3-1.1V42.1h-4v18.1c-0.1,1,0.2,2,0.7,2.9C86.4,63.8,87.2,64.2,88,64.1z M108.5,79.7
			c0-5.3-4.3-9.5-9.6-9.5c0,0,0,0,0,0c-7.2-0.3-14.5-0.4-22-0.4h-2.3c-7.5,0-14.8,0.1-22,0.4c-5.3,0-9.5,4.2-9.6,9.5c0,0,0,0,0,0
			c-0.3,4.1-0.5,8.3-0.5,12.4s0.1,8.3,0.5,12.4c0,5.3,4.3,9.5,9.6,9.5c7.5,0.3,15.3,0.4,23.2,0.4s15.6-0.1,23.2-0.4
			c5.3,0,9.6-4.2,9.6-9.5c0,0,0,0,0,0c0.3-4.2,0.5-8.3,0.4-12.4S108.8,83.8,108.5,79.7L108.5,79.7z M56.9,107.1h-4.5V82h-4.7v-4.3
			h13.9V82h-4.7V107.1z M73,107.1h-4v-2.4c-0.7,0.8-1.4,1.5-2.3,2c-0.7,0.4-1.5,0.7-2.3,0.7c-0.8,0-1.6-0.3-2.1-1
			c-0.5-0.9-0.8-1.9-0.7-2.9V85.4h4V102c0,0.4,0.1,0.8,0.2,1.1c0.2,0.2,0.5,0.4,0.8,0.3c0.4,0,0.8-0.2,1.1-0.5
			c0.5-0.3,0.9-0.7,1.3-1.1V85.4h4L73,107.1z M88.6,102.6c0.1,1.2-0.2,2.5-0.9,3.5c-0.7,0.8-1.7,1.3-2.7,1.2c-0.7,0-1.5-0.2-2.1-0.5
			c-0.7-0.4-1.3-0.9-1.8-1.5v1.7h-4V77.7h4v9.5c0.5-0.6,1.1-1.1,1.7-1.5c0.6-0.3,1.2-0.5,1.8-0.5c1.1-0.1,2.2,0.5,2.9,1.4
			c0.7,1.2,1.1,2.6,1,4L88.6,102.6z M103.4,96.8h-7.7v4.1c-0.1,0.8,0.1,1.6,0.4,2.4c0.3,0.5,0.8,0.7,1.4,0.7
			c0.5,0.1,1.1-0.2,1.4-0.6c0.3-0.8,0.5-1.6,0.4-2.5v-1.5h4.2v1.7c0.1,1.8-0.4,3.6-1.5,5c-1.2,1.2-2.8,1.8-4.5,1.7
			c-1.6,0.1-3.2-0.6-4.3-1.8c-1.1-1.4-1.6-3.1-1.6-4.9v-9.8c-0.1-1.7,0.5-3.4,1.7-4.6c1.2-1.2,2.7-1.8,4.4-1.8
			c1.6-0.1,3.2,0.5,4.3,1.6c1.1,1.3,1.6,3,1.5,4.7L103.4,96.8z M97.5,88.7c-0.5-0.1-1,0.2-1.4,0.6c-0.3,0.6-0.5,1.3-0.4,1.9v2.2h3.6
			v-2.2c0.1-0.7-0.1-1.4-0.4-1.9C98.6,88.8,98,88.6,97.5,88.7z M60.5,63.8H65V51.6l5.3-17.2h-4.6l-2.8,11.7h-0.3l-2.9-11.7H55
			l5.4,17.7V63.8z M82.7,88.6c-0.3,0-0.6,0.1-0.9,0.2c-0.3,0.2-0.6,0.4-0.8,0.7V103c0.3,0.3,0.6,0.6,1,0.8c0.3,0.2,0.7,0.2,1,0.2
			c0.4,0,0.8-0.1,1.1-0.5c0.3-0.4,0.4-1,0.3-1.5V90.8c0-0.6-0.1-1.2-0.5-1.7C83.7,88.8,83.2,88.6,82.7,88.6z"/>
	</g>
</g>
</svg>
